<svg xmlns="http://www.w3.org/2000/svg" width="596" height="552" viewBox="0 0 596 552" version="1.1"><path d="M 345 171.975 C 345 174.756, 344.832 174.887, 342.435 173.975 C 338.995 172.667, 331.666 172.739, 328.657 174.110 C 324.721 175.904, 323.831 179.105, 326.220 182.879 C 327.336 184.642, 328.081 186.244, 327.875 186.441 C 327.669 186.637, 325.218 185.942, 322.429 184.896 C 318.542 183.438, 317.025 182.239, 315.929 179.759 C 314.207 175.861, 310.883 174.035, 305.473 174.015 C 300.706 173.997, 297.471 175.988, 296.595 179.477 C 295.825 182.544, 294.344 182.671, 291.416 179.922 C 289.312 177.944, 289.051 177.922, 286.059 179.470 C 282.642 181.236, 280.395 184.982, 281.315 187.378 C 282.305 189.958, 286.516 192.034, 293.134 193.203 C 301.076 194.606, 303.641 196.487, 296.285 195.513 C 289.756 194.648, 283.280 196.427, 285.077 198.593 C 286.045 199.759, 285.619 200, 282.590 200 C 277.732 200, 272.758 202.175, 270.898 205.114 C 268.670 208.634, 265 217.983, 265 220.140 C 265 221.787, 265.501 221.650, 269.164 218.996 C 274.902 214.839, 282.051 212.896, 291.496 212.926 C 307.063 212.975, 316.401 215.297, 326.797 221.704 C 334.436 226.411, 342.320 234.786, 346.114 242.224 C 354.018 257.716, 354.539 278.458, 347.586 300.791 C 344.556 310.524, 343.903 311.740, 340.423 314.136 C 337.969 315.826, 335.417 319.031, 333.312 323.068 C 331.507 326.530, 330.203 329.536, 330.414 329.747 C 330.975 330.308, 335.636 325.120, 338.722 320.500 C 343.097 313.952, 346.243 310.955, 351 308.805 C 368.806 300.754, 372.078 298.809, 378.198 292.645 C 392.308 278.433, 399.206 260.304, 399.370 237 C 399.486 220.529, 397.411 213.458, 386.607 193.500 C 383.443 187.657, 383.236 186.953, 385.354 189.243 C 388.285 192.411, 388.882 191.894, 387.938 187 C 387.567 185.075, 387.204 184.063, 387.132 184.750 C 386.905 186.904, 384.987 186.128, 381.565 182.500 C 375.014 175.555, 367.691 179.943, 372.750 187.782 L 374.500 190.494 371.500 188.209 C 369.850 186.953, 366.822 184.817, 364.771 183.463 C 362.719 182.109, 360.153 179.260, 359.068 177.133 C 357.670 174.394, 355.770 172.642, 352.558 171.132 C 346.341 168.210, 345 168.360, 345 171.975 M 313.415 192.863 C 313.709 193.337, 316.098 194.301, 318.724 195.004 C 335.594 199.521, 351.387 217.961, 357.150 239.870 C 360.098 251.074, 360.799 274.559, 358.542 286.500 C 357.607 291.450, 356.009 297.870, 354.991 300.766 C 353.830 304.068, 353.580 305.781, 354.320 305.361 C 359.685 302.312, 368.627 295.090, 373.342 289.998 C 380.116 282.681, 388.266 266.734, 390.066 257.275 C 391.818 248.068, 390.065 237.668, 385.034 227.414 C 378.100 213.284, 360.925 199.122, 344.645 194.110 C 339.229 192.443, 335.174 192, 325.336 192 C 318.486 192, 313.122 192.388, 313.415 192.863 M 275.218 224.414 C 272.863 225.181, 270.271 226.360, 269.458 227.035 C 268.645 227.710, 265.867 228.657, 263.286 229.139 C 258.592 230.016, 253.552 233.686, 252.503 236.990 C 252.217 237.890, 252.618 240.736, 253.394 243.314 L 254.804 248 251.288 248 C 242.996 248, 234.929 256.777, 236.901 263.654 C 237.385 265.341, 238.293 267.680, 238.920 268.851 C 239.998 270.866, 239.862 270.846, 236.390 268.490 C 231.834 265.398, 231.615 265.403, 229.073 268.635 C 227.664 270.426, 227 272.731, 227 275.831 L 227 280.392 223.566 277.064 C 218.054 271.722, 215.555 264.937, 215.525 255.232 C 215.504 248.297, 215.295 247.244, 214.230 248.701 C 210.423 253.907, 210.224 265.622, 213.823 272.622 C 218.716 282.138, 230.565 287.922, 236.282 283.585 C 237.942 282.325, 237.889 282.189, 235.497 281.588 C 231.115 280.489, 229.914 273.976, 233.538 270.969 C 234.683 270.018, 235.646 270.025, 237.999 271 C 239.650 271.683, 241 272.621, 241 273.083 C 241 274.192, 248.768 276.261, 250.023 275.486 C 251.736 274.427, 251.089 273.413, 247.657 271.776 C 244.381 270.214, 241 265.011, 241 261.533 C 241 254.416, 249.847 249.846, 258.552 252.466 C 261.222 253.269, 263.592 253.741, 263.819 253.515 C 264.045 253.288, 262.829 251.402, 261.115 249.324 C 258.892 246.626, 258 244.503, 258 241.907 C 258 237.625, 261.209 233, 264.181 233 C 265.853 233, 266.105 233.447, 265.589 235.500 C 265.024 237.753, 265.260 238, 267.981 238 C 270.356 238, 271 237.563, 271 235.955 C 271 234.830, 272.163 232.746, 273.585 231.324 C 275.951 228.958, 276.695 228.782, 282.398 229.240 C 298.256 230.513, 309.074 245.992, 307.701 265.446 C 306.113 287.948, 295.237 309.808, 276.042 329.080 C 268.063 337.090, 265.097 339.336, 257.937 342.786 C 224.972 358.672, 178.846 363.897, 141 356.032 C 114.209 350.464, 82.848 337.145, 58.500 320.994 C 53 317.346, 47.937 314.028, 47.250 313.621 C 46.351 313.090, 46 313.825, 46 316.237 C 46 319.367, 46.729 320.108, 56.859 327.266 C 94.268 353.700, 143.154 368.541, 186.500 366.624 C 206.134 365.756, 226.009 361.935, 238.944 356.542 C 242 355.268, 246.300 353.487, 248.500 352.584 L 252.500 350.942 249.500 353.463 C 247.850 354.850, 242.495 358.034, 237.600 360.538 C 232.705 363.043, 226.855 366.172, 224.600 367.492 C 214.308 373.518, 191.824 378.951, 164.500 382.016 C 151.306 383.496, 139.087 382.179, 123.111 377.553 C 93.690 369.035, 73.407 355.826, 52.342 331.465 C 49.505 328.184, 46.931 325.749, 46.623 326.053 C 45.722 326.940, 47.167 334.015, 48.128 333.421 C 48.607 333.125, 49 333.363, 49 333.952 C 49 334.540, 52.487 338.693, 56.750 343.179 C 68.120 355.147, 81.848 364.878, 100.500 374.192 C 109.300 378.587, 115.375 381.940, 114 381.643 C 112.625 381.347, 107.932 380.371, 103.571 379.475 C 91.776 377.051, 75.498 371.451, 67.537 367.080 C 63.666 364.954, 57.864 361.757, 54.642 359.974 C 47.336 355.931, 47.016 356.312, 47.073 369 C 47.107 376.708, 48.436 388.925, 48.885 385.666 C 48.948 385.207, 50.687 386.165, 52.750 387.793 C 73.917 404.509, 129.105 432.913, 160 442.994 C 172.069 446.932, 201.154 452.262, 219.500 453.899 C 230.020 454.837, 248.265 453.931, 258.498 451.961 C 269.881 449.771, 296.468 439.682, 316 430.142 C 330.706 422.959, 346.917 411.917, 356.381 402.637 C 366.045 393.159, 374.922 377.700, 374.976 370.250 C 374.997 367.443, 374.659 367, 372.498 367 C 370.649 367, 369.079 368.277, 366.477 371.899 C 363.473 376.080, 359.189 380, 357.623 380 C 357.376 380, 358.477 377.638, 360.069 374.750 C 363.333 368.831, 363.770 364.509, 361.374 361.861 C 359.293 359.562, 357.876 360.283, 348.153 368.590 C 335.255 379.610, 307.631 394.344, 289 400.143 C 278.857 403.300, 259.806 406.914, 252.151 407.134 L 247.500 407.267 252.500 408.051 C 260.491 409.303, 296.530 408.059, 304 406.273 C 317.264 403.101, 337.642 394.413, 349.748 386.769 C 355.320 383.250, 356.440 382.899, 360.106 383.518 L 364.216 384.212 359.358 389.160 C 351.609 397.053, 335.204 408.974, 326.312 413.172 C 298.911 426.110, 232.980 433.313, 186.222 428.478 C 137.148 423.403, 99.937 411.715, 70.284 392.063 C 60.233 385.402, 56.779 381.633, 55.104 375.500 C 52.945 367.597, 53.111 367.533, 63.003 372.501 C 85.928 384.015, 101.329 388.380, 128.724 391.128 C 160.616 394.327, 202.043 386.284, 230.500 371.369 C 232.150 370.504, 237.756 367.555, 242.958 364.814 C 262.203 354.677, 284.221 333.772, 297.533 313 C 315.689 284.669, 319.305 252.616, 306.267 235.578 C 299.196 226.340, 284.994 221.233, 275.218 224.414 M 251.250 260.662 C 250.563 260.940, 250 261.790, 250 262.551 C 250 264.215, 254.167 262.998, 254.782 261.154 C 255.173 259.980, 253.513 259.749, 251.250 260.662 M 461.989 301.250 C 457.123 309.232, 462.341 326.299, 474.086 340.814 C 476.839 344.216, 478.637 347, 478.083 347 C 474.459 347, 465.693 342.464, 463.331 339.367 C 456.844 330.863, 447.178 330.832, 448.169 339.318 L 448.559 342.664 443.241 338.332 C 440.315 335.949, 437.539 334, 437.071 334 C 436.603 334, 435.225 331.863, 434.008 329.250 C 432.791 326.637, 431.097 323.712, 430.243 322.750 C 428.139 320.380, 422.766 320.496, 420.536 322.960 C 418.167 325.578, 418.958 329.451, 423.983 339.842 L 427.939 348.023 425.220 347.418 C 423.724 347.086, 421.776 346.621, 420.891 346.384 C 418.592 345.770, 416.666 348.533, 417.388 351.410 C 418.384 355.377, 422.724 359.718, 428.538 362.563 C 433.826 365.149, 434.388 365.213, 447.743 364.740 C 463.814 364.172, 469.986 362.718, 482.500 356.557 C 492.647 351.560, 503.600 342.265, 510.694 332.629 L 515.016 326.758 507.758 322.285 C 503.766 319.825, 498.224 315.661, 495.442 313.031 C 490.469 308.330, 485.266 305, 482.895 305 C 482.119 305, 482.280 305.652, 483.345 306.829 C 484.255 307.835, 485 308.960, 485 309.329 C 485 311.006, 482.718 309.562, 476.581 304 C 468.554 296.726, 465.140 296.083, 461.989 301.250 M 352.568 324.522 C 350.588 326.657, 350.136 326.798, 349.615 325.438 C 348.526 322.602, 346.795 324.434, 344.961 330.362 C 343.978 333.540, 342.068 337.796, 340.717 339.820 C 337.691 344.355, 327.279 356.974, 321.668 362.908 L 317.500 367.315 324 362.987 C 334.640 355.902, 356.255 339.559, 359.774 335.939 C 361.575 334.087, 363.575 330.813, 364.219 328.664 C 365.258 325.196, 365.178 324.603, 363.503 323.379 C 360.409 321.116, 355.221 321.658, 352.568 324.522 M 472.546 330.431 C 473.422 331.767, 475.345 333.626, 476.819 334.560 C 478.873 335.862, 478.576 335.294, 475.547 332.130 C 471.017 327.397, 470.289 326.985, 472.546 330.431 M 409.854 394.388 C 395.190 399.565, 386.141 407.096, 374.880 423.500 C 371.482 428.450, 367.643 434.025, 366.351 435.890 C 361.712 442.578, 364.206 440.742, 377.250 427.866 C 388.354 416.904, 412.147 397.381, 419.500 393.199 C 423.238 391.072, 417.105 391.829, 409.854 394.388 M 53.389 399.875 C 54.856 410.932, 64.895 434.452, 74.253 448.755 C 82.260 460.994, 96.698 476.889, 106.465 484.220 C 120.863 495.025, 138.788 504.100, 153.921 508.245 C 160.805 510.131, 165.212 510.375, 202 510.910 C 224.275 511.235, 285.475 511.253, 338 510.951 C 443.164 510.347, 436.438 510.758, 451.460 504.018 C 469.121 496.094, 484.792 484.620, 497.673 470.182 C 510.948 455.303, 518.086 444.928, 520.503 437 C 521.231 434.613, 521.181 434.575, 519.383 436.172 C 517.679 437.685, 516.979 437.709, 512.032 436.422 C 502.927 434.054, 482.964 434.552, 468.346 437.512 C 445.713 442.094, 407.612 456.377, 390.537 466.680 L 386.500 469.115 391 465.019 C 396.755 459.781, 408.601 450.843, 415.033 446.885 C 421.132 443.132, 422.376 441.120, 420.938 437.336 C 419.538 433.655, 418.385 433.034, 412.923 433.015 C 401.288 432.976, 368.606 445.520, 338.979 461.396 C 330.627 465.872, 293.945 478.098, 279 481.388 C 254.532 486.773, 239.465 488.298, 216.500 487.712 C 185.213 486.913, 164.342 482.601, 136.058 471.091 C 121.142 465.021, 105.057 454.481, 108.803 453.232 C 109.324 453.059, 114.419 454.780, 120.125 457.057 C 153.444 470.353, 176.955 475.708, 212.500 478.094 C 240.565 479.978, 267.761 478.291, 292.520 473.130 C 303.626 470.816, 324.089 462.515, 335.636 455.641 C 344.360 450.448, 353 443.611, 353 441.901 C 353 441.389, 350.264 442.352, 346.921 444.040 C 330.022 452.570, 308.375 458.750, 281.500 462.716 C 272.284 464.076, 263.468 464.471, 243.500 464.421 C 214.726 464.349, 206.291 463.187, 190.307 457.092 C 178.737 452.681, 155.676 444.228, 148.649 441.823 C 120.296 432.118, 80.276 412.491, 58.066 397.399 C 56.125 396.080, 54.132 395, 53.639 395 C 53.144 395, 53.032 397.185, 53.389 399.875 M 445.123 461.045 C 427.287 464.613, 413.269 470.177, 396.277 480.433 C 391.204 483.495, 386.704 486.008, 386.277 486.018 C 385.850 486.028, 383.501 487.391, 381.058 489.046 C 378.615 490.701, 374.115 492.768, 371.058 493.639 C 364.153 495.605, 362.331 497.059, 368.163 495.948 C 373.489 494.934, 377.179 493.572, 392.500 486.969 C 421.736 474.368, 453.228 467, 477.851 467 C 486.484 467, 489 466.171, 489 463.326 C 489 462.625, 487.672 461.365, 486.050 460.526 C 481.686 458.269, 457.460 458.576, 445.123 461.045" stroke="none" fill="#092150" fill-rule="evenodd"/><path d="M 236.501 106.124 C 232.865 107.138, 231 109.484, 231 113.045 C 231 115.969, 235.039 121, 237.387 121 C 240.267 121, 243.914 119.061, 245.454 116.711 C 248.910 111.436, 242.908 104.338, 236.501 106.124 M 196.602 111.756 C 192.054 112.392, 186.002 116.751, 184.424 120.529 C 182.587 124.924, 182.629 127.555, 184.629 133.426 C 185.922 137.218, 187.204 138.808, 190.825 141.104 C 195.937 144.346, 199.992 144.737, 205.340 142.502 C 215.676 138.184, 217.170 121.703, 207.856 114.763 C 204.141 111.995, 200.966 111.147, 196.602 111.756 M 257.655 117.829 C 255.504 120.206, 255.560 122.291, 257.829 124.345 C 260.111 126.411, 261.932 126.436, 264.777 124.443 C 267.476 122.553, 267.631 119.881, 265.171 117.655 C 262.772 115.484, 259.713 115.555, 257.655 117.829 M 288.364 117.493 C 288.018 118.396, 288.169 119.569, 288.700 120.100 C 290.099 121.499, 293.153 120.032, 292.788 118.136 C 292.364 115.935, 289.142 115.467, 288.364 117.493 M 329 132.610 C 327.625 132.866, 322.675 133.793, 318 134.671 C 307.868 136.573, 290.437 144.030, 280.810 150.579 C 272.973 155.911, 263.606 166.871, 261.042 173.710 C 257.650 182.759, 257.789 183.488, 261.768 177.500 C 271.493 162.867, 286.607 153.194, 295.500 155.911 L 298.500 156.828 295.694 156.914 C 292.464 157.013, 282.133 161.915, 277 165.783 C 269.112 171.729, 258.216 184.593, 256.507 189.978 C 256.022 191.506, 255.330 191.943, 254.160 191.461 C 249.914 189.714, 238.951 189.747, 234.305 191.521 C 226.680 194.433, 218 203.550, 218 208.647 C 218 210.014, 218.714 209.701, 221.297 207.196 C 223.401 205.158, 227.655 202.921, 233.047 201.020 C 241.651 197.986, 245.921 197.462, 249.500 199 C 251.028 199.657, 250.438 199.878, 247 199.939 C 241.136 200.044, 233.304 203.750, 229.291 208.321 C 227.331 210.554, 225.167 214.910, 223.689 219.596 C 221.613 226.179, 220.796 227.509, 217.761 229.244 C 214.384 231.173, 212 235.777, 212 240.366 C 212 242.606, 212.337 242.493, 217.568 238.500 C 222.894 234.434, 225.426 233.846, 221.742 237.531 C 220.350 238.923, 218.924 241.590, 218.574 243.458 C 218.223 245.326, 217.388 247.039, 216.718 247.265 C 215.810 247.571, 215.785 248.034, 216.620 249.087 C 217.235 249.864, 218.265 252.133, 218.907 254.129 C 220.640 259.513, 223.030 261.273, 227.479 260.438 C 229.504 260.058, 231.327 259.242, 231.530 258.624 C 231.734 258.006, 232.419 255.483, 233.052 253.017 C 233.828 249.992, 235.621 247.116, 238.564 244.173 C 242.714 240.023, 243.128 239.846, 247.100 240.517 L 251.276 241.222 250.590 238.361 C 250.213 236.788, 249.645 234.472, 249.329 233.215 C 248.959 231.745, 249.417 230.196, 250.614 228.874 C 252.241 227.076, 253.483 226.850, 260.487 227.074 C 266.593 227.269, 269.452 226.888, 272.500 225.476 C 274.942 224.344, 278.882 223.598, 282.615 223.561 C 290.978 223.478, 300.841 228.489, 306.267 235.578 C 319.305 252.616, 315.689 284.669, 297.533 313 C 284.221 333.772, 262.203 354.677, 242.958 364.814 C 237.756 367.555, 232.150 370.504, 230.500 371.369 C 202.043 386.284, 160.616 394.327, 128.724 391.128 C 101.329 388.380, 85.928 384.015, 63.003 372.501 C 53.111 367.533, 52.945 367.597, 55.104 375.500 C 56.779 381.633, 60.233 385.402, 70.284 392.063 C 99.937 411.715, 137.148 423.403, 186.222 428.478 C 232.980 433.313, 298.911 426.110, 326.312 413.172 C 335.204 408.974, 351.609 397.053, 359.358 389.160 L 364.216 384.212 360.106 383.518 C 356.440 382.899, 355.320 383.250, 349.748 386.769 C 337.642 394.413, 317.264 403.101, 304 406.273 C 296.530 408.059, 260.491 409.303, 252.500 408.051 L 247.500 407.267 252.151 407.134 C 259.791 406.914, 278.846 403.303, 289 400.150 C 310.229 393.558, 336.667 378.970, 351.500 365.665 C 357.692 360.110, 358 359.873, 358 360.652 C 358 361.054, 358.639 360.509, 359.419 359.441 C 360.672 357.729, 361.214 357.642, 364.032 358.706 C 366.927 359.799, 367.847 359.598, 373.863 356.560 C 377.513 354.717, 381.475 351.881, 382.666 350.258 C 388.518 342.288, 404.557 341.816, 409.570 349.466 L 411.296 352.100 412.731 349.137 C 414.584 345.310, 418.665 343.542, 422.381 344.955 C 426.974 346.701, 427.048 346.264, 423.439 338.750 C 421.524 334.762, 419.690 329.847, 419.363 327.826 C 418.971 325.402, 418.332 324.319, 417.485 324.644 C 415.320 325.475, 414.737 323.051, 416.467 320.410 C 420.197 314.717, 427.565 314.805, 434.001 320.620 C 437.597 323.868, 440.046 328.660, 441.422 335.140 C 441.730 336.592, 442.712 338.059, 443.603 338.401 C 444.908 338.902, 445.104 338.549, 444.611 336.584 C 443.289 331.319, 452.929 327.942, 458.626 331.675 C 460.902 333.165, 462.377 335.494, 462.951 338.500 C 463.373 340.704, 466.544 343.060, 471.674 344.979 C 474.644 346.091, 477.529 347, 478.083 347 C 478.637 347, 476.839 344.216, 474.086 340.814 C 467.761 332.998, 463.608 325.204, 461.584 317.356 C 459.489 309.231, 459.591 305.183, 461.989 301.250 C 465.140 296.083, 468.554 296.726, 476.581 304 C 482.718 309.562, 485 311.006, 485 309.329 C 485 308.960, 484.255 307.835, 483.345 306.829 C 482.280 305.652, 482.119 305, 482.895 305 C 485.264 305, 490.259 308.222, 495.834 313.346 C 501.145 318.227, 512.696 326.002, 514.631 325.998 C 515.530 325.996, 519.550 319.928, 522.413 314.250 C 524.020 311.062, 526 309.894, 526 312.134 C 526 314.032, 517.407 331.541, 513.954 336.678 C 504.906 350.142, 495.410 356.917, 468.500 369.111 C 463.983 371.158, 463.753 371.412, 466.122 371.742 C 467.564 371.943, 472.289 371.220, 476.622 370.135 C 480.955 369.050, 488.775 367.626, 494 366.972 C 499.225 366.318, 505.723 364.942, 508.440 363.915 C 513.647 361.947, 515.023 362.062, 513.157 364.311 C 511.766 365.987, 509.124 366.754, 486.500 372.050 C 461.190 377.974, 445.626 383.617, 424.250 394.615 C 414.212 399.780, 405.986 403.667, 405.970 403.253 C 405.953 402.839, 405.481 403.288, 404.920 404.250 C 404.359 405.212, 403.410 406, 402.811 406 C 400.878 406, 388.820 416.366, 376.250 428.833 C 364.178 440.807, 361.731 442.551, 366.351 435.890 C 367.643 434.025, 371.480 428.450, 374.875 423.500 C 387.116 405.657, 400.367 395.684, 415.566 392.875 C 418.830 392.272, 422.175 391.368, 423 390.866 C 423.825 390.364, 430.794 386.814, 438.488 382.977 L 452.475 376 445.720 376 C 438.661 376, 422.430 372.913, 416.532 370.449 C 413.894 369.347, 412.856 368.143, 412.055 365.257 C 411.481 363.191, 411.009 360.540, 411.006 359.366 C 410.998 356.615, 404.353 350.602, 399.578 349.026 C 392.991 346.852, 386.903 349.704, 383.969 356.337 C 382.955 358.630, 381.226 364.624, 380.128 369.657 C 376.898 384.457, 369.800 395.915, 357.078 406.864 C 350.413 412.600, 338.411 419.744, 337.302 418.635 C 337.030 418.363, 333.813 419.984, 330.153 422.238 C 312.062 433.383, 274.914 448.794, 258.498 451.966 C 247.733 454.046, 230.975 454.817, 219 453.785 C 207.540 452.796, 171.224 446.896, 167.586 445.431 C 166.309 444.916, 165.895 445.021, 166.342 445.745 C 166.711 446.341, 166.478 447.007, 165.825 447.225 C 165.172 447.443, 167.532 448.677, 171.069 449.968 C 174.606 451.258, 182.180 454.068, 187.900 456.211 C 206.810 463.295, 213.932 464.347, 243.500 464.421 C 263.468 464.471, 272.284 464.076, 281.500 462.716 C 308.375 458.750, 330.022 452.570, 346.921 444.040 C 350.264 442.352, 353 441.389, 353 441.901 C 353 443.543, 344.477 450.358, 336.177 455.353 C 331.741 458.023, 322.484 462.560, 315.604 465.437 C 304.402 470.122, 303.255 470.827, 304.619 472.191 C 305.983 473.555, 307.518 473.251, 319.321 469.285 C 326.569 466.850, 335.425 463.292, 339 461.380 C 347.085 457.054, 371.144 445.703, 380.500 441.800 C 395.891 435.379, 414.914 431.387, 418.687 433.786 C 420.724 435.080, 422.105 439.935, 421.016 441.970 C 420.475 442.981, 417.782 445.193, 415.033 446.885 C 408.601 450.843, 396.755 459.781, 391 465.019 L 386.500 469.115 390.537 466.680 C 407.612 456.377, 445.713 442.094, 468.346 437.512 C 482.964 434.552, 502.927 434.054, 512.032 436.422 C 516.762 437.652, 517.713 437.652, 519.081 436.420 C 519.951 435.637, 520.885 435.218, 521.157 435.490 C 521.429 435.762, 523.690 432.275, 526.181 427.742 C 529.720 421.304, 531.202 417.092, 532.949 408.500 C 534.179 402.450, 536 396.086, 536.996 394.357 C 539.411 390.165, 541.234 372.657, 540.782 358 L 540.428 346.500 540.214 361.250 C 540.083 370.274, 539.612 376, 539 376 C 538.354 376, 538 364.375, 538 343.125 L 538 310.250 534.762 309.602 C 530.465 308.743, 521.348 303.990, 511.408 297.426 C 501.242 290.714, 487.496 276.442, 479.188 263.973 C 473.235 255.039, 470.359 249.500, 453.243 214 C 443.712 194.233, 435.792 182.694, 423.012 169.959 C 403.766 150.780, 382.525 139.022, 359.092 134.577 C 350.839 133.011, 333.090 131.851, 329 132.610 M 153.736 133.838 C 146.107 135.665, 140.123 145.239, 142.110 152.437 C 144.029 159.385, 150.801 165.015, 157.200 164.984 C 161.712 164.961, 167.974 161.209, 170.383 157.084 C 172.801 152.943, 172.916 145.673, 170.633 141.258 C 167.620 135.430, 160.375 132.249, 153.736 133.838 M 332.367 165.796 C 329.543 167.392, 325.846 169.686, 324.150 170.893 C 321.240 172.966, 320.926 172.997, 318.575 171.457 C 316.876 170.344, 313.972 169.842, 309.440 169.876 C 303.911 169.919, 301.595 170.521, 295.639 173.464 C 291.703 175.409, 287.984 177, 287.376 177 C 285.294 177, 280.870 181.219, 281.428 182.672 C 281.733 183.467, 281.538 183.832, 280.989 183.493 C 279.600 182.635, 279.754 183.679, 281.585 187.538 C 282.710 189.909, 284.075 191.077, 286.290 191.564 L 289.411 192.249 287.248 194 C 286.058 194.964, 285.352 196.018, 285.678 196.344 C 286.465 197.132, 283.196 196.447, 279.685 195.089 C 275.745 193.565, 268.575 193.733, 264.477 195.445 C 258.764 197.832, 256 201.297, 256 206.071 L 256 210.233 260.091 206.536 C 262.342 204.503, 266.159 201.587, 268.575 200.055 C 272.632 197.481, 273.317 197.350, 277.579 198.325 L 282.191 199.381 277.654 200.703 C 274.794 201.537, 272.424 203.038, 271.240 204.763 C 268.828 208.280, 265 217.713, 265 220.140 C 265 221.787, 265.501 221.650, 269.164 218.996 C 274.902 214.839, 282.051 212.896, 291.496 212.926 C 307.063 212.975, 316.401 215.297, 326.797 221.704 C 334.436 226.411, 342.320 234.786, 346.114 242.224 C 354.016 257.712, 354.538 278.448, 347.589 300.791 C 344.514 310.678, 343.951 311.710, 340.255 314.232 C 337.589 316.051, 335.302 318.890, 333.409 322.732 C 329.326 331.016, 328.960 332, 329.961 332 C 331.580 332, 334.033 328.864, 333.349 327.669 C 332.981 327.026, 333.048 326.834, 333.498 327.241 C 333.948 327.649, 334.807 327.602, 335.408 327.136 C 336.009 326.670, 337.538 326.034, 338.807 325.723 C 340.716 325.255, 340.910 325.403, 339.935 326.579 C 339.286 327.360, 338.023 328.036, 337.128 328.079 C 336.232 328.122, 335.994 328.362, 336.599 328.612 C 338.638 329.455, 343.241 327.071, 342.633 325.486 C 342.319 324.669, 342.499 324, 343.031 324 C 343.564 324, 343.919 323.663, 343.820 323.250 C 343.557 322.158, 347.170 315.974, 349.513 313.505 C 350.620 312.338, 355.345 310.191, 360.013 308.733 C 369.959 305.626, 376.227 301.885, 382.558 295.279 C 395.702 281.562, 403.228 261.505, 403.302 240 C 403.363 222.061, 400.109 210.693, 391.447 198.585 C 389.513 195.881, 387.998 192.956, 388.080 192.085 C 388.629 186.291, 387.805 184, 383.423 179.126 C 378.762 173.941, 373.065 171.270, 369.547 172.620 C 368.481 173.029, 366.878 172.299, 365.098 170.594 C 361.207 166.866, 352.753 163.895, 344.500 163.354 C 338.168 162.939, 337.010 163.172, 332.367 165.796 M 118.265 183.363 C 113.961 187.430, 113.619 188.127, 113.235 193.613 C 112.724 200.915, 115.283 205.349, 122.008 208.815 C 132.988 214.472, 144.336 207.196, 144.402 194.455 C 144.449 185.485, 137.598 179, 128.074 179 C 123.319 179, 122.496 179.366, 118.265 183.363 M 313.415 192.863 C 313.709 193.337, 316.098 194.301, 318.724 195.004 C 335.594 199.521, 351.387 217.961, 357.150 239.870 C 360.098 251.074, 360.799 274.559, 358.542 286.500 C 357.607 291.450, 356.009 297.870, 354.991 300.766 C 353.830 304.068, 353.580 305.781, 354.320 305.361 C 359.685 302.312, 368.627 295.090, 373.342 289.998 C 380.116 282.681, 388.266 266.734, 390.066 257.275 C 391.818 248.068, 390.065 237.668, 385.034 227.414 C 378.100 213.284, 360.925 199.122, 344.645 194.110 C 339.229 192.443, 335.174 192, 325.336 192 C 318.486 192, 313.122 192.388, 313.415 192.863 M 95.500 227.662 C 86.194 232.568, 82.561 241.955, 86.418 251.128 C 89.285 257.944, 97.806 263.558, 104.021 262.724 C 116.633 261.032, 123.551 250.380, 120.024 238.083 C 117.323 228.667, 104.184 223.083, 95.500 227.662 M 125.591 269.573 C 112.544 274.354, 105.821 288.574, 110.970 300.500 C 115.184 310.261, 122.058 315, 132 315 C 144.653 315, 153.583 306.696, 154.748 293.844 C 155.471 285.867, 153.217 280.279, 147.030 274.717 C 139.897 268.304, 133.345 266.732, 125.591 269.573 M 358.348 319.779 C 358.052 320.907, 356.742 322.099, 355.434 322.427 C 354.127 322.755, 352.559 323.955, 351.949 325.094 C 350.885 327.084, 350.788 327.094, 349.488 325.333 C 347.730 322.953, 346.807 324.061, 344.682 331.102 C 342.920 336.940, 339.788 341.650, 329.189 354.400 C 325.718 358.576, 323.125 362.394, 323.428 362.883 C 323.731 363.373, 323.196 363.712, 322.239 363.637 C 321.283 363.562, 320.613 364.063, 320.750 364.750 C 320.888 365.438, 320.654 365.888, 320.231 365.750 C 319.808 365.613, 318.345 366.571, 316.981 367.880 C 308.380 376.131, 286.797 387.460, 266.217 394.524 C 259.223 396.925, 253.875 398.914, 254.333 398.945 C 257.556 399.159, 278.560 392.549, 288 388.350 C 301.396 382.390, 326.753 368.951, 333 364.500 C 337.125 361.561, 345.197 355.890, 350.939 351.899 C 364.346 342.579, 370.496 336.619, 371.852 331.633 C 374.007 323.706, 371.132 319.107, 363.483 318.245 C 359.456 317.791, 358.817 317.982, 358.348 319.779 M 47 323.139 C 47 326.542, 58.817 339.754, 72.082 351.183 C 90.134 366.737, 120.297 379.541, 145 382.139 C 165.753 384.322, 209.778 376.170, 224.829 367.358 C 227.209 365.964, 229.001 364.668, 228.810 364.477 C 228.620 364.286, 225.322 364.996, 221.482 366.054 C 208.632 369.596, 195.281 371.104, 176.745 371.109 C 161.763 371.112, 156.775 370.699, 144.804 368.463 C 124.745 364.717, 105.278 358.962, 92.709 353.064 C 86.773 350.279, 81.278 348, 80.497 348 C 78.656 348, 53.213 330.974, 50.175 327.710 C 48.766 326.196, 48.256 324.960, 48.881 324.573 C 50.049 323.852, 49.260 321, 47.893 321 C 47.402 321, 47 321.963, 47 323.139 M 472.546 330.431 C 473.422 331.767, 475.345 333.626, 476.819 334.560 C 478.873 335.862, 478.576 335.294, 475.547 332.130 C 471.017 327.397, 470.289 326.985, 472.546 330.431 M 47.660 333.673 C 47.297 334.036, 47.007 339.996, 47.015 346.917 C 47.025 354.514, 47.378 358.952, 47.907 358.116 C 48.617 356.995, 49.896 357.348, 54.642 359.974 C 57.864 361.757, 63.666 364.954, 67.537 367.080 C 75.498 371.451, 91.776 377.051, 103.571 379.475 C 107.932 380.371, 112.625 381.347, 114 381.643 C 115.375 381.940, 109.300 378.587, 100.500 374.192 C 90.305 369.102, 80.872 363.491, 74.500 358.728 C 65.140 351.731, 53.177 340.361, 49.803 335.256 C 48.988 334.022, 48.023 333.310, 47.660 333.673 M 171.750 359.737 C 174.637 359.939, 179.363 359.939, 182.250 359.737 C 185.137 359.535, 182.775 359.370, 177 359.370 C 171.225 359.370, 168.863 359.535, 171.750 359.737 M 442.250 365.728 C 444.313 365.944, 447.688 365.944, 449.750 365.728 C 451.813 365.513, 450.125 365.336, 446 365.336 C 441.875 365.336, 440.188 365.513, 442.250 365.728 M 399.637 373.465 C 394.981 375.125, 390.791 378.974, 387.467 384.647 C 384.605 389.530, 384.475 390.139, 386.453 389.380 C 387.252 389.073, 389.332 386.599, 391.077 383.881 C 394.209 379, 400.949 374, 404.397 374 C 405.344 374, 405.840 373.550, 405.500 373 C 404.726 371.748, 404.375 371.776, 399.637 373.465 M 445.123 461.045 C 427.287 464.613, 413.269 470.177, 396.277 480.433 C 391.204 483.495, 386.704 486.008, 386.277 486.018 C 385.850 486.028, 383.501 487.391, 381.058 489.046 C 378.615 490.701, 374.115 492.768, 371.058 493.639 C 364.153 495.605, 362.331 497.059, 368.163 495.948 C 373.489 494.934, 377.179 493.572, 392.500 486.969 C 421.736 474.368, 453.228 467, 477.851 467 C 486.484 467, 489 466.171, 489 463.326 C 489 462.625, 487.672 461.365, 486.050 460.526 C 481.686 458.269, 457.460 458.576, 445.123 461.045" stroke="none" fill="#34ade1" fill-rule="evenodd"/><path d="M 173.500 61.131 C 151.184 61.835, 146.744 62.527, 132.812 67.475 C 113.004 74.509, 99.938 82.675, 85.219 97.219 C 75.280 107.040, 71.067 112.410, 63.425 125 C 53.839 140.793, 49.161 152.601, 45.345 170.644 C 43.923 177.371, 43.622 187.892, 43.255 243.836 C 43.019 279.771, 43.095 310.243, 43.423 311.551 C 43.802 313.059, 44.534 313.732, 45.424 313.391 C 46.197 313.094, 51.929 316.303, 58.164 320.521 C 80.417 335.575, 112.298 349.203, 140.500 355.716 C 152.001 358.372, 153.580 358.486, 178.500 358.455 C 201.709 358.426, 205.735 358.172, 216 356.088 C 241.842 350.843, 262.600 342.047, 273.751 331.617 C 287.542 318.716, 300.359 297.826, 305.115 280.500 C 309.658 263.950, 307.533 247.232, 299.760 238.380 C 290.549 227.889, 273.512 225.841, 271.504 234.983 C 270.945 237.529, 270.368 238, 267.812 238 C 265.081 238, 264.845 237.755, 265.411 235.500 C 266.175 232.455, 264.274 232.148, 261.012 234.789 C 259.534 235.986, 258.639 238.057, 258.311 241.039 C 257.871 245.034, 258.142 245.807, 260.910 248.437 C 264.645 251.987, 265.080 254.597, 261.750 253.476 C 260.512 253.060, 256.962 252.520, 253.859 252.276 C 248.761 251.876, 247.913 252.106, 245.049 254.667 C 239.522 259.607, 241.103 268.504, 248.081 271.720 C 252.983 273.979, 252.518 275.558, 247.025 275.299 C 242.791 275.099, 239.419 273.128, 239.239 270.746 C 239.187 270.061, 238.325 267.355, 237.324 264.732 C 235.541 260.065, 235.545 259.888, 237.502 256.313 C 240.220 251.346, 243.877 248.881, 249.459 248.252 C 253.860 247.756, 254.109 247.571, 253.525 245.245 C 251.548 237.367, 251.582 237.183, 255.759 233.006 C 258.981 229.784, 260.484 229, 263.441 229 C 265.638 229, 266.869 228.597, 266.500 228 C 266.160 227.450, 262.828 227, 259.096 227 C 251.225 227, 248.270 228.965, 249.377 233.465 C 251.493 242.073, 251.742 241.301, 247.100 240.517 C 243.128 239.846, 242.714 240.023, 238.564 244.173 C 235.621 247.116, 233.828 249.992, 233.052 253.017 C 232.419 255.483, 231.734 258.006, 231.530 258.624 C 231.327 259.242, 229.504 260.058, 227.479 260.438 C 223.028 261.273, 220.634 259.509, 218.917 254.129 C 217.190 248.721, 216.284 248.360, 215.536 252.785 C 214.733 257.540, 215.617 262.888, 218.215 269 C 220.080 273.386, 224.556 279, 226.187 279 C 226.634 279, 227 276.975, 227 274.500 C 227 271.333, 227.593 269.407, 229 268 C 231.650 265.350, 233.322 265.478, 236.694 268.588 C 238.619 270.364, 238.928 270.992, 237.678 270.591 C 234.559 269.592, 232 271.729, 232 275.335 C 232 278.980, 233.498 281, 236.200 281 C 238.899 281, 238.369 282.758, 235.171 284.411 C 232.884 285.594, 231.496 285.659, 227.921 284.752 C 222.178 283.294, 213.946 275.239, 212.216 269.384 C 209.671 260.770, 211.512 249.372, 215.749 247.513 C 217.158 246.895, 218.225 245.319, 218.605 243.294 C 218.938 241.516, 220.350 238.923, 221.742 237.531 C 225.426 233.846, 222.894 234.434, 217.568 238.500 C 212.337 242.493, 212 242.606, 212 240.366 C 212 235.777, 214.384 231.173, 217.761 229.244 C 220.796 227.509, 221.613 226.179, 223.689 219.596 C 225.167 214.910, 227.331 210.554, 229.291 208.321 C 233.304 203.750, 241.136 200.044, 247 199.939 C 250.438 199.878, 251.028 199.657, 249.500 199 C 245.921 197.462, 241.651 197.986, 233.047 201.020 C 227.655 202.921, 223.401 205.158, 221.297 207.196 C 218.714 209.701, 218 210.014, 218 208.647 C 218 203.550, 226.680 194.433, 234.305 191.521 C 238.951 189.747, 249.914 189.714, 254.160 191.461 C 255.330 191.943, 256.022 191.506, 256.507 189.978 C 258.216 184.593, 269.112 171.729, 277 165.783 C 282.133 161.915, 292.464 157.013, 295.694 156.914 L 298.500 156.828 295.500 155.911 C 286.607 153.194, 271.493 162.867, 261.768 177.500 C 257.789 183.488, 257.650 182.759, 261.042 173.710 C 263.606 166.871, 272.973 155.911, 280.810 150.579 C 290.261 144.150, 307.811 136.617, 318.500 134.402 C 334.464 131.094, 356.077 132.523, 372.717 137.985 C 390.583 143.850, 407.788 154.788, 423.012 169.959 C 435.792 182.694, 443.712 194.233, 453.243 214 C 470.359 249.500, 473.235 255.039, 479.188 263.973 C 487.496 276.442, 501.242 290.714, 511.408 297.426 C 521.348 303.990, 530.465 308.743, 534.762 309.602 L 538 310.250 538 343.125 C 538 364.375, 538.354 376, 539 376 C 539.615 376, 540.048 370.417, 540.125 361.500 C 540.194 353.525, 540.401 345.762, 540.586 344.250 C 540.770 342.738, 541.220 305.950, 541.585 262.500 C 542.183 191.442, 542.080 182.353, 540.567 172.092 C 538.601 158.763, 535.598 149.334, 528.910 135.500 C 522.228 121.678, 519.905 117.964, 512.088 108.605 C 490.228 82.434, 459.856 65.275, 428.500 61.381 C 421.153 60.469, 201.326 60.253, 173.500 61.131 M 236.501 106.124 C 232.865 107.138, 231 109.484, 231 113.045 C 231 115.969, 235.039 121, 237.387 121 C 240.267 121, 243.914 119.061, 245.454 116.711 C 248.910 111.436, 242.908 104.338, 236.501 106.124 M 196.602 111.756 C 192.054 112.392, 186.002 116.751, 184.424 120.529 C 182.587 124.924, 182.629 127.555, 184.629 133.426 C 185.922 137.218, 187.204 138.808, 190.825 141.104 C 195.937 144.346, 199.992 144.737, 205.340 142.502 C 215.676 138.184, 217.170 121.703, 207.856 114.763 C 204.141 111.995, 200.966 111.147, 196.602 111.756 M 257.655 117.829 C 255.504 120.206, 255.560 122.291, 257.829 124.345 C 260.111 126.411, 261.932 126.436, 264.777 124.443 C 267.476 122.553, 267.631 119.881, 265.171 117.655 C 262.772 115.484, 259.713 115.555, 257.655 117.829 M 288.364 117.493 C 288.018 118.396, 288.169 119.569, 288.700 120.100 C 290.099 121.499, 293.153 120.032, 292.788 118.136 C 292.364 115.935, 289.142 115.467, 288.364 117.493 M 153.736 133.838 C 146.107 135.665, 140.123 145.239, 142.110 152.437 C 144.029 159.385, 150.801 165.015, 157.200 164.984 C 161.712 164.961, 167.974 161.209, 170.383 157.084 C 172.801 152.943, 172.916 145.673, 170.633 141.258 C 167.620 135.430, 160.375 132.249, 153.736 133.838 M 332.367 165.796 C 329.543 167.392, 325.846 169.686, 324.150 170.893 C 321.240 172.966, 320.926 172.997, 318.575 171.457 C 314.316 168.666, 303.689 169.336, 297.026 172.815 C 293.987 174.401, 289.820 176.250, 287.766 176.922 C 285.712 177.595, 283.124 179.298, 282.016 180.707 C 278.847 184.736, 279.658 185.142, 283.400 181.400 C 287.297 177.503, 289.305 177.166, 291.732 180 C 293.699 182.298, 296 182.640, 296 180.635 C 296 179.884, 296.933 178.084, 298.073 176.635 C 299.837 174.391, 300.918 174, 305.350 174 C 311.238 174, 314.244 175.638, 316.554 180.104 C 318.030 182.959, 320.135 184.243, 325.580 185.609 L 328.071 186.235 325.970 182.674 C 324.256 179.768, 324.080 178.719, 325.015 176.972 C 326.907 173.437, 332.039 171.870, 338.013 173.002 C 340.841 173.539, 343.570 174.234, 344.077 174.548 C 344.585 174.861, 345 173.741, 345 172.059 C 345 169.647, 345.431 169, 347.040 169 C 351.008 169, 356.916 172.916, 358.944 176.889 C 360.027 179.014, 362.396 181.688, 364.207 182.833 C 366.018 183.978, 368.997 186.144, 370.827 187.645 L 374.154 190.375 372.011 186.744 C 370.299 183.841, 370.090 182.700, 370.970 181.057 C 372.790 177.656, 377.943 178.314, 381.962 182.461 C 385.075 185.673, 387 186.230, 387 183.919 C 387 183.389, 385.145 180.943, 382.878 178.483 C 378.674 173.923, 372.840 171.357, 369.547 172.620 C 368.481 173.029, 366.878 172.299, 365.098 170.594 C 361.207 166.866, 352.753 163.895, 344.500 163.354 C 338.168 162.939, 337.010 163.172, 332.367 165.796 M 118.265 183.363 C 113.961 187.430, 113.619 188.127, 113.235 193.613 C 112.724 200.915, 115.283 205.349, 122.008 208.815 C 132.988 214.472, 144.336 207.196, 144.402 194.455 C 144.449 185.485, 137.598 179, 128.074 179 C 123.319 179, 122.496 179.366, 118.265 183.363 M 389.942 199.678 C 396.993 213.611, 398.975 220.286, 399.711 232.578 C 401.136 256.375, 391.531 281.785, 376.052 295.166 C 373.273 297.569, 365.127 302.396, 357.770 306 C 345.365 312.076, 344.255 312.858, 340.743 318 C 338.676 321.025, 335.153 325.413, 332.913 327.750 C 330.673 330.087, 329.323 332, 329.912 332 C 330.502 332, 332.146 330.696, 333.566 329.102 C 336.183 326.166, 342.238 323.804, 339.886 326.637 C 339.264 327.387, 338.023 328.036, 337.128 328.079 C 336.232 328.122, 335.994 328.362, 336.599 328.612 C 338.439 329.372, 343.110 327.107, 342.796 325.606 C 342.462 324.015, 346.470 316.820, 349.513 313.548 C 350.620 312.358, 355.345 310.191, 360.013 308.733 C 369.959 305.626, 376.227 301.885, 382.558 295.279 C 395.702 281.562, 403.228 261.505, 403.302 240 C 403.360 223.031, 399.838 209.350, 393.462 201.773 C 392.047 200.091, 389.798 196.561, 388.464 193.928 C 387.130 191.296, 385.570 188.852, 384.999 188.499 C 384.427 188.146, 386.652 193.177, 389.942 199.678 M 286.084 194.888 C 283.914 196.569, 283.331 196.619, 280.366 195.380 C 273.368 192.455, 263.670 194.239, 258.510 199.400 C 256.634 201.275, 256 202.961, 256 206.071 L 256 210.233 260.091 206.536 C 262.342 204.503, 266.184 201.571, 268.629 200.020 C 272.982 197.260, 273.184 197.230, 278.287 198.589 C 285.279 200.450, 286.606 200.436, 285.014 198.517 C 283.122 196.237, 288.221 194.696, 295.500 195.347 C 302.130 195.940, 300.252 194.663, 293 193.647 C 289.461 193.151, 287.984 193.416, 286.084 194.888 M 95.500 227.662 C 86.194 232.568, 82.561 241.955, 86.418 251.128 C 89.285 257.944, 97.806 263.558, 104.021 262.724 C 116.633 261.032, 123.551 250.380, 120.024 238.083 C 117.323 228.667, 104.184 223.083, 95.500 227.662 M 250.074 261.411 C 249.430 262.187, 249.297 263.065, 249.778 263.363 C 251.251 264.273, 255 262.852, 255 261.383 C 255 259.579, 251.579 259.598, 250.074 261.411 M 125.591 269.573 C 112.544 274.354, 105.821 288.574, 110.970 300.500 C 115.184 310.261, 122.058 315, 132 315 C 144.653 315, 153.583 306.696, 154.748 293.844 C 155.471 285.867, 153.217 280.279, 147.030 274.717 C 139.897 268.304, 133.345 266.732, 125.591 269.573 M 521.909 315.178 C 513.286 332.080, 496.896 349.912, 484.098 356.314 C 464.893 365.922, 440.169 368.666, 428.065 362.533 C 415.805 356.321, 412.695 343.902, 424.125 346.804 C 429.020 348.046, 428.074 346.744, 422.876 345.085 C 418.289 343.621, 414.702 345.067, 412.708 349.183 L 411.296 352.100 409.570 349.466 C 404.557 341.816, 388.518 342.288, 382.666 350.258 C 381.475 351.881, 377.478 354.734, 373.785 356.599 C 368.048 359.496, 366.711 359.826, 364.599 358.863 C 363.240 358.244, 361.311 358.053, 360.314 358.440 C 358.679 359.073, 358.657 359.259, 360.087 360.321 C 364.259 363.421, 364.389 367.480, 360.551 374.901 C 357.243 381.298, 359.258 379.889, 368.635 369.249 C 370.838 366.749, 372.025 366.142, 373.772 366.622 C 375.775 367.171, 375.967 367.675, 375.388 370.872 C 372.843 384.926, 359.205 403.097, 342.708 414.416 C 339.568 416.570, 337.179 418.512, 337.399 418.732 C 338.425 419.758, 350.691 412.361, 357.078 406.864 C 369.800 395.915, 376.898 384.457, 380.128 369.657 C 381.226 364.624, 382.955 358.630, 383.969 356.337 C 386.903 349.704, 392.991 346.852, 399.578 349.026 C 404.353 350.602, 410.998 356.615, 411.006 359.366 C 411.009 360.540, 411.481 363.191, 412.055 365.257 C 412.856 368.143, 413.894 369.347, 416.532 370.449 C 422.432 372.914, 438.662 376, 445.733 376.001 L 452.500 376.002 439.500 382.340 C 427.268 388.304, 415.315 395.694, 408.500 401.507 C 406.844 402.919, 413.789 399.845, 424 394.645 C 445.648 383.622, 461.414 377.922, 486.500 372.050 C 509.124 366.754, 511.766 365.987, 513.157 364.311 C 515.023 362.062, 513.647 361.947, 508.440 363.915 C 505.723 364.942, 499.225 366.318, 494 366.972 C 488.775 367.626, 480.955 369.050, 476.622 370.135 C 472.289 371.220, 467.564 371.943, 466.122 371.742 C 463.753 371.412, 463.983 371.158, 468.500 369.111 C 495.410 356.917, 504.906 350.142, 513.954 336.678 C 517.407 331.541, 526 314.032, 526 312.134 C 526 309.674, 523.932 311.212, 521.909 315.178 M 417.923 318.923 C 416.315 320.531, 415 322.304, 415 322.864 C 415 324.979, 417.287 325.164, 419.864 323.258 C 426.117 318.636, 429.816 320.068, 433.845 328.669 C 435.123 331.398, 437.355 334.241, 438.928 335.144 L 441.732 336.753 440.837 332.772 C 439.654 327.507, 437.793 324.081, 434.339 320.814 C 428.508 315.296, 422.268 314.578, 417.923 318.923 M 358.750 318.571 C 357.222 320.124, 358.071 322, 360.300 322 C 365.021 322, 366.192 325.686, 363.364 331.646 C 361.172 336.264, 353.265 342.636, 324.091 363.291 C 298.131 381.671, 288.468 386.886, 266.217 394.524 C 259.223 396.925, 253.875 398.914, 254.333 398.945 C 257.556 399.159, 278.560 392.549, 288 388.350 C 301.396 382.390, 326.753 368.951, 333 364.500 C 337.125 361.561, 345.197 355.890, 350.939 351.899 C 364.346 342.579, 370.496 336.619, 371.852 331.633 C 373.131 326.930, 372.398 322.670, 369.926 320.433 C 367.944 318.639, 359.987 317.314, 358.750 318.571 M 49.241 322.534 C 49.649 322.964, 49.527 323.865, 48.970 324.536 C 48.239 325.417, 48.995 326.667, 51.690 329.033 C 56.771 333.494, 78.838 348, 80.543 348 C 81.299 348, 86.773 350.279, 92.709 353.064 C 105.274 358.961, 124.744 364.717, 144.784 368.460 C 156.612 370.669, 161.826 371.109, 176.359 371.125 C 195.588 371.145, 205.751 370.034, 220 366.350 C 230.705 363.582, 242.598 358.490, 243.432 356.317 C 243.737 355.523, 244.339 355.092, 244.771 355.358 C 245.203 355.625, 246.668 354.986, 248.028 353.938 C 249.670 352.672, 247.528 353.234, 241.649 355.610 C 211.813 367.672, 175.105 370.271, 139.500 362.843 C 127.568 360.354, 109.097 354.899, 100.613 351.360 C 87.671 345.959, 70.074 336.508, 59.512 329.284 C 53.456 325.141, 48.834 322.104, 49.241 322.534 M 446.634 332.073 C 444.543 333.718, 444.128 334.699, 444.623 336.823 C 444.967 338.295, 445.923 340.175, 446.748 341 C 448.082 342.333, 448.179 342.201, 447.620 339.810 C 447.156 337.821, 447.600 336.414, 449.329 334.404 C 451.499 331.881, 451.907 331.772, 455.054 332.869 C 456.918 333.519, 459.708 335.262, 461.254 336.743 L 464.064 339.435 462.508 336.317 C 459.388 330.063, 451.777 328.028, 446.634 332.073 M 399.637 373.465 C 394.981 375.125, 390.791 378.974, 387.467 384.647 C 384.605 389.530, 384.475 390.139, 386.453 389.380 C 387.252 389.073, 389.332 386.599, 391.077 383.881 C 394.209 379, 400.949 374, 404.397 374 C 405.344 374, 405.840 373.550, 405.500 373 C 404.726 371.748, 404.375 371.776, 399.637 373.465 M 50 389.429 C 50 392.146, 50.568 393.153, 52.750 394.305 C 54.263 395.103, 61.807 399.583, 69.515 404.262 C 77.223 408.940, 89.823 415.921, 97.515 419.776 C 122.986 432.542, 172.061 451.299, 166.450 446.124 C 165.928 445.642, 162.350 444.228, 158.500 442.983 C 132.898 434.701, 77.758 406.439, 56.114 390.505 L 50 386.004 50 389.429 M 109 454.045 C 109 460, 143.028 475.690, 169.500 481.942 C 188.171 486.351, 198.786 487.481, 221.500 487.476 C 249.453 487.471, 271.373 484.250, 297.293 476.341 C 304.366 474.183, 305.834 473.415, 304.793 472.416 C 303.760 471.423, 300.613 471.744, 289.147 474.013 C 267.871 478.223, 252.115 479.391, 226 478.692 C 202.416 478.061, 186.209 476.399, 169.531 472.903 C 157.851 470.455, 133.682 462.778, 119.585 457.037 C 108.375 452.473, 109 452.650, 109 454.045" stroke="none" fill="#fafaf6" fill-rule="evenodd"/></svg>